<svg id="Layer_1" data-name="Layer 1" xmlns="http://www.w3.org/2000/svg" viewBox="0 0 512 512"><title>blogger-handdrawn</title><g style="isolation:isolate"><path d="M377.29,315.23c-4.56,8,112,64.57,111.7,65.13-3.65,6.38-100.68-52.12-104.64-45.2-4.13,7.23,102.25,55.77,100.6,58.66,0,0-92.44-42.49-94-39.77,0,0,88.83,46.8,86.69,50.55-4.24,7.41-97.34-43.18-99.16-40-.68,1.19,91.89,46.92,89,51.91-.62,1.09-94.22-46.68-97.73-40.53-.92,1.62,92,52.5,91.47,53.34-4.19,7.32-102.5-47.22-103.25-45.91C355.69,387.49,460.72,438,458.43,442c0,0-108.93-57.44-113.5-49.45,0,0,106.53,55.72,103.79,60.52C442.84,463.31,310,388.68,310,388.68c-3.5,6.13,129.34,64.45,124.64,72.67-3.05,5.34-138.94-66.57-138.94-66.57-5.2,9.1,136.7,68.6,131.94,76.93-1,1.68-162-90.06-166.79-81.76-.35.62,148.24,74.21,143,83.38-2,3.44-173.77-86.68-175.09-84.38-3.61,6.31,170.27,84.59,164,95.61-4.82,8.43-180-96-182.21-92.11,0,0,161.56,84.41,157.36,91.75-3.24,5.66-184.06-94.7-185.5-92.18-5.72,10,169.38,81.23,161.86,94.38" fill="none" stroke="#00ace4" stroke-linecap="round" stroke-linejoin="round" stroke-width="12.12"/><path d="M286.21,133.81S487.89,245.48,485.35,249.93c0,0-175.48-107.51-184.12-92.4,0,0,199.17,96.41,190.71,111.2,0,0-186.43-107.73-192.34-97.4-.35.61,186,106.27,185.1,107.93C479.07,289.13,301.4,170,293.06,184.54c-9.13,16,202.52,118.09,202.52,118.09-.43.75-202.53-121.26-211.48-105.62-1,1.76,212.49,116.19,209.18,122C485,333.48,270.62,200.14,268.37,204.09c-5.23,9.15,223.81,123.65,220.87,128.79-3.27,5.71-234.1-120.41-234.1-120.41-10.84,19,240,140,240,140S235.51,209.25,232.34,214.8c0,0,266.58,135.88,258.19,150.55-2.39,4.19-288.36-150.55-288.36-150.55-6.88,12,144.29,84.13,144.29,84.13-2.81,4.92-174.59-104.14-183.12-89.22-.31.54,165,80.24,158.16,92.22" fill="none" stroke="#00ace4" stroke-linecap="round" stroke-linejoin="round" stroke-width="12.12"/><path d="M476.06,210.81s15.58,8.56,15.36,9c-.71,1.24-45.61-12.49-45.61-12.49-.61,1.06,48,27.23,47.68,27.8" fill="none" stroke="#00ace4" stroke-linecap="round" stroke-linejoin="round" stroke-width="12.12"/><path d="M300.63,30.34c-.3.53,58.84,30.34,57.14,33.32-3.41,6-93.27-37.47-93.42-37.2-4.18,7.31,130,65.78,125.71,73.3C384,110.4,244.81,29.25,244.81,29.25c-3.12,5.47,151.85,78.29,147.45,86,0,0-171.49-97.56-177.07-87.82-.25.43,193.82,93.19,185.32,108.06L188.75,28.13S401.54,133.46,393.5,147.53C386.95,159,157.72,17.7,154.08,24.07c-5.3,9.27,242.65,141.49,242.65,141.49S141.25,23.76,138,29.5c-3.83,6.7,275.54,137.33,265.53,154.83-5.24,9.17-286-149-286-149-.23.41,151.75,83.38,149.56,87.21-7.3,12.76-175.24-86.31-175.24-86.31s145.56,71.37,139.77,81.5c-5.19,9.08-148.2-76.39-151.48-70.66-.15.26,121.58,70.68,121.49,70.84-.43.76-129.73-69.24-133.1-63.35-.48.83,107.36,62.6,107.36,62.6-1.75,3.05-111.79-58.24-115.09-52.46-3.95,6.9,101.89,59.41,101.89,59.41C159.78,129.2,51.53,64.44,47.21,72c-2.48,4.34,96.71,56.39,96.71,56.39-4.12,7.21-100.3-43.14-100.83-42.21-4.18,7.31,93.3,54.4,93.3,54.4-2.56,4.48-102.51-44-102.52-44-1.86,3.25,94,52.3,92.94,54.19-2.05,3.59-99-44.46-100-42.67-.82,1.43,93.13,46.37,89.73,52.32-1.18,2.07-87.76-45.13-91.76-38.12-3.15,5.51,98.43,54.78,97.31,56.74-2,3.49-98.8-44.3-100.15-41.94L305.4,302.38C296.9,317.24,25.56,155.85,25.56,155.85,21.41,163.12,277,291.45,272.25,299.7c-2.08,3.64-255.84-133.28-255.84-133.28s235.3,115.86,226.15,131.86C234.23,312.85,27.47,172.48,19.7,186.08c-3,5.17,208.49,103.72,200.84,117.11-7.05,12.33-187.39-104.62-192.47-95.73-1.23,2.16,160.3,93.47,160.3,93.47S24,211.93,20.46,218.2c-5.28,9.23,146,85.15,146,85.15-1.93,3.37-143.08-66.27-143.08-66.27-3,5.32,117.34,67,116.75,68.08-3.37,5.89-118-55.63-119.89-52.24-4.82,8.43,110.72,54.27,106.31,62-2,3.54-96.06-48.81-99-43.65,0,0,101.05,54.06,99,57.71-4.39,7.68-97.32-44.74-99.4-41.1-2.57,4.5,98.87,57.65,98.87,57.65S30.15,301,27.79,305.11c0,0,96.25,45.35,91.63,53.43,0,0-98.17-43.58-99.67-41-1.32,2.31,291,164.3,288.69,168.33-2.71,4.75-284.37-148.33-284.37-148.33-3.44,6,258.69,150.25,258.44,150.69C279.83,493,26,354.18,25.2,355.66,20.5,363.88,255.33,476,249.38,486.38c-7.62,13.33-222.3-128.25-228.14-118C13.61,381.69,220,484.23,220,484.23c-7.61,13.31-186.59-98.52-188.94-94.4-6.81,11.92,170.37,86.35,164.8,96.1,0,0-153.16-81.19-157-74.46-5.16,9,130.68,73.43,129.49,75.51-1.31,2.29-118.13-52.73-118.89-51.4,0,0,77.49,43.62,76.82,44.79" fill="none" stroke="#00ace4" stroke-linecap="round" stroke-linejoin="round" stroke-width="12.12"/></g><path d="M505,218.28a26.82,26.82,0,0,0-5.26-16.09c-.89-.69-1.73-1.39-2.56-2.09s-1.67-1.42-2.52-2.13a19.64,19.64,0,0,0-7.29-3.42,23.77,23.77,0,0,0-8-.41H444.7a32.67,32.67,0,0,1-12.89-2.42,28.31,28.31,0,0,1-10.53-7.84,19,19,0,0,1-4.68-8.44,40.69,40.69,0,0,1-1.3-9.67c0-4.74-.25-9.48-.66-14.22s-1-9.43-1.62-14.14a14,14,0,0,1-.84-5.05,11.58,11.58,0,0,0-1.05-5c-1.06-3.75-2-7.45-3-11.18s-2-7.36-3.14-11.15a80.36,80.36,0,0,0-7.78-19.76,160,160,0,0,0-11.53-17.85,28.62,28.62,0,0,0-2.36-2.71A25.25,25.25,0,0,1,381,62,115.62,115.62,0,0,0,362.87,44.2a140.39,140.39,0,0,0-21.25-13.79,103.91,103.91,0,0,0-20.27-9.73c-7-2.58-14.26-4.65-21.46-6.77-2.8-.59-5.51-1.19-8.21-1.54a30.24,30.24,0,0,0-8.33-.07,9,9,0,0,0-3.65-1.39,24,24,0,0,0-3.92-.22c-18.43,0-36.87.2-55.27.3s-36.91.1-55.27-.3A230.77,230.77,0,0,0,139.5,12a174.79,174.79,0,0,0-25.34,4.68h-1.89c-1.17.41-2.31.77-3.48,1.12s-2.27.69-3.49,1.08A145.91,145.91,0,0,0,80,30.25,130.66,130.66,0,0,0,57.4,46.49a150.29,150.29,0,0,0-33.85,43A145.54,145.54,0,0,0,8.2,142.26,5.21,5.21,0,0,0,7,145.83c0,1.21.13,2.52.13,3.87V345c0,4.35,0,8.91.12,13.5A118.53,118.53,0,0,0,8.3,372c.55,4.44,1.1,8.62,1.82,12.78A118.11,118.11,0,0,0,13,397.33c1.46,4.86,3,9.63,4.92,14.29a85.3,85.3,0,0,0,6.84,13.45,178.27,178.27,0,0,0,15.49,22.54,128.55,128.55,0,0,0,19.27,19.31c2.49,2,5,3.81,7.52,5.55s5.13,3.39,7.82,5.1a36.61,36.61,0,0,0,4,3A43.32,43.32,0,0,0,83.19,483a40.92,40.92,0,0,1,5.08,2.56,17.22,17.22,0,0,0,5.28,2.06,113.27,113.27,0,0,0,13.3,5.3c4.55,1.52,9.13,2.84,13.69,4.15a39.23,39.23,0,0,1,8.67,1.28,39.58,39.58,0,0,0,8.66,1.33,21.67,21.67,0,0,1,5.08.8,21.66,21.66,0,0,0,5.08.8H364c1.15,0,2.24,0,3.32-.07a16.68,16.68,0,0,0,3.27-.52,48.53,48.53,0,0,0,8.94-.95c3-.55,5.89-1.26,8.79-1.87a35.9,35.9,0,0,0,11.85-2.33c3.82-1.33,7.56-3,11.36-4.3,4.43-2.11,8.82-4.18,13.13-6.39a135,135,0,0,0,12.65-7.29,140.25,140.25,0,0,0,31.77-26.87,145.35,145.35,0,0,0,22.6-35.09c2-4.72,4-9.54,5.8-14.57a82.38,82.38,0,0,0,3.87-15.19,42.53,42.53,0,0,0,2.75-11.49c.44-3.88.54-7.86.64-11.84q.21-36,.18-72.11Q504.94,254.5,505,218.28ZM161.57,137.42c2.13,0,4.29-.2,6.43-.4s4.31-.4,6.42-.4h78.87a35.08,35.08,0,0,1,14.2,2.86,33.59,33.59,0,0,1,11.69,8.61,54.68,54.68,0,0,1,4.71,10.41,26.89,26.89,0,0,1,1.07,11.33A27.79,27.79,0,0,1,274.6,188.1a32.15,32.15,0,0,1-19.72,7.26H172.52c-6.81,0-13-1-18.35-3.5a31.35,31.35,0,0,1-13.72-12.59,27.39,27.39,0,0,1,.17-26.15C144.85,145.11,152.6,138.95,161.57,137.42ZM362.24,367.75a28.94,28.94,0,0,1-11,6.3,41.88,41.88,0,0,1-12.6,1.75H171.32a41,41,0,0,1-15.12-2.59,35,35,0,0,1-12.66-8.68A28.51,28.51,0,0,1,137,351a26.41,26.41,0,0,1,1.82-14.86,31.27,31.27,0,0,1,8.34-13.08,26.67,26.67,0,0,1,14-6.43,52.75,52.75,0,0,1,5.67-.53c1.92-.08,3.79-.08,5.69-.08h165.1a64.36,64.36,0,0,1,10.69.58,22.26,22.26,0,0,1,9.83,4.05c8.62,5.93,13.43,14.14,14.3,22.56C373.34,352,370,360.89,362.24,367.75Z" fill="none" stroke="#0072bf" stroke-width="13.85"/></svg>